<svg xmlns="http://www.w3.org/2000/svg" preserveAspectRatio="xMidYMid" width="30" height="48" viewBox="0 0 30 48"><defs><style>
      .cls-1 {
        fill: #c99065;
        fill-rule: evenodd;
      }
    </style></defs><path d="M15 48C6.7 48 0 41.3 0 33L0 15C0 6.7 6.7 0 15 0 23.3 0 30 6.7 30 15L30 33C30 41.3 23.3 48 15 48ZM15 3C8.4 3 3 8.4 3 15L3 33C3 39.6 8.4 45 15 45 21.6 45 27 39.6 27 33L27 15C27 8.4 21.6 3 15 3ZM15.2 20.5C13.1 20.5 11.4 18.8 11.4 16.8L11.4 12.3C11.4 10.2 13.1 8.5 15.2 8.5 17.3 8.5 18.9 10.2 18.9 12.3L18.9 16.8C18.9 18.8 17.3 20.5 15.2 20.5ZM15.2 11.5C14.8 11.5 14.4 11.9 14.4 12.3L14.4 16.8C14.4 17.2 14.8 17.5 15.2 17.5 15.6 17.5 15.9 17.2 15.9 16.8L15.9 12.3C15.9 11.9 15.6 11.5 15.2 11.5Z" class="cls-1"/></svg>
