<svg xmlns="http://www.w3.org/2000/svg" width="32" height="32" viewBox="0 0 32 32" style="fill: #c99065;"><path d="M13.3 1.2c0 0-0.1-0.1-0.2-0.1-0.1 0-0.1 0-0.2 0l0.3 0.1z"/><path d="M1.2 13.2c0 0.1 0 0.1 0 0.2 0 0.1 0.1 0.1 0.1 0.2l-0.1-0.3z"/><path d="M30.8 18.8c0-0.1 0-0.1 0-0.2 0 0 0-0.1-0.1-0.1l0.1 0.3z"/><path d="M18.5 30.7c0.1 0 0.1 0.1 0.2 0.1 0.1 0 0.1 0 0.2 0l-0.3-0.1z"/><path d="M30.9 18.7c0 0.1 0 0.1 0 0.2l-0.1-0.3c0 0.1 0.1 0.1 0.1 0.2 0.2-0.9 0.3-1.8 0.3-2.7 0-2-0.4-4-1.2-5.9-0.8-1.8-1.8-3.4-3.2-4.8s-3-2.5-4.8-3.2c-1.9-0.8-3.8-1.2-5.9-1.2-1 0-1.9 0.1-2.9 0.3 0 0 0 0 0 0 0.1 0 0.1 0.1 0.2 0.1l-0.3 0c0.1 0 0.1 0 0.2 0-1.3-0.7-2.7-1-4.2-1-2.4 0-4.6 0.9-6.3 2.6s-2.6 3.9-2.6 6.3c0 1.5 0.4 3 1.1 4.3 0-0.1 0-0.1 0-0.2l0.1 0.3c0 0-0.1-0.1-0.1-0.1-0.1 0.9-0.2 1.7-0.2 2.6 0 2 0.4 4 1.2 5.9 0.8 1.8 1.9 3.4 3.2 4.8s3 2.5 4.8 3.2c1.9 0.8 3.8 1.2 5.9 1.2 0.9 0 1.8-0.1 2.6-0.2 0 0-0.1-0.1-0.2-0.1l0.3 0.1c-0.1 0-0.1 0-0.2 0 1.3 0.8 2.9 1.2 4.4 1.2 2.4 0 4.6-0.9 6.3-2.6s2.6-3.9 2.6-6.3c0-1.5-0.4-3-1.1-4.3zM16.1 25.2c-5.4 0-7.8-2.6-7.8-4.6 0-1 0.8-1.7 1.8-1.7 2.3 0 1.7 3.3 6 3.3 2.2 0 3.4-1.2 3.4-2.4 0-0.7-0.4-1.5-1.8-1.9l-4.8-1.2c-3.8-1-4.5-3-4.5-5 0-4.1 3.8-5.6 7.4-5.6 3.3 0 7.2 1.8 7.2 4.3 0 1-0.9 1.7-1.9 1.7-2 0-1.6-2.7-5.5-2.7-2 0-3 0.9-3 2.2s1.6 1.7 2.9 2l3.5 0.8c3.9 0.9 4.9 3.1 4.9 5.3 0 3.3-2.5 5.8-7.6 5.8z"/></svg>
