<svg xmlns="http://www.w3.org/2000/svg" preserveAspectRatio="xMidYMid" width="48" height="39" viewBox="0 0 48 39"><defs><style>
      .cls-1 {
        fill: #c99065;
        fill-rule: evenodd;
      }
    </style></defs><path d="M46.5 39L1.5 39C0.7 39 0 38.3 0 37.5L0 1.5C0 0.7 0.7 0 1.5 0L46.5 0C47.3 0 48 0.7 48 1.5L48 37.5C48 38.3 47.3 39 46.5 39ZM45 3L3 3 3 10.7 45 10.7 45 3ZM45 13.7L3 13.7 3 36 45 36 45 13.7ZM7.8 5.5C8.6 5.5 9.2 6.1 9.2 6.9 9.2 7.6 8.6 8.3 7.8 8.3 7.1 8.3 6.5 7.6 6.5 6.9 6.5 6.1 7.1 5.5 7.8 5.5ZM13.2 5.5C13.9 5.5 14.6 6.1 14.6 6.9 14.6 7.6 13.9 8.3 13.2 8.3 12.4 8.3 11.8 7.6 11.8 6.9 11.8 6.1 12.4 5.5 13.2 5.5ZM18.5 5.5C19.3 5.5 19.9 6.1 19.9 6.9 19.9 7.6 19.3 8.3 18.5 8.3 17.8 8.3 17.2 7.6 17.2 6.9 17.2 6.1 17.8 5.5 18.5 5.5Z" class="cls-1"/></svg>
